<?xml version="1.0" standalone="no"?>
<!DOCTYPE svg PUBLIC "-//W3C//DTD SVG 20010904//EN"
 "http://www.w3.org/TR/2001/REC-SVG-20010904/DTD/svg10.dtd">
<svg version="1.0" xmlns="http://www.w3.org/2000/svg"
 width="477.000000pt" height="477.000000pt" viewBox="0 0 477.000000 477.000000"
 preserveAspectRatio="xMidYMid meet">
<metadata>
Created by potrace 1.14, written by Peter Selinger 2001-2017
</metadata>
<g transform="translate(0.000000,477.000000) scale(0.100000,-0.100000)"
fill="#000000" stroke="none">
<path d="M0 2390 l0 -1900 720 0 720 0 0 1010 0 1010 483 0 482 0 345 345 345
345 -890 0 -890 0 -160 160 -160 160 1210 0 1210 0 385 385 385 385 -2093 0
-2092 0 0 -1900z"/>
<path d="M3585 3250 l-1040 -1040 -295 0 -295 0 340 -340 340 -340 437 437
438 438 0 -958 0 -957 630 0 630 0 0 1900 0 1900 -73 0 -72 0 -1040 -1040z"/>
</g>
</svg>
